<svg width="20" height="20" viewBox="0 0 20 20" fill="#D63120" xmlns="http://www.w3.org/2000/svg">
<path d="M10.0003 1.66669C5.40866 1.66669 1.66699 5.40835 1.66699 10C1.66699 14.5917 5.40866 18.3334 10.0003 18.3334C14.592 18.3334 18.3337 14.5917 18.3337 10C18.3337 5.40835 14.592 1.66669 10.0003 1.66669ZM12.8003 11.9167C13.042 12.1584 13.042 12.5584 12.8003 12.8C12.6753 12.925 12.517 12.9834 12.3587 12.9834C12.2003 12.9834 12.042 12.925 11.917 12.8L10.0003 10.8834L8.08366 12.8C7.95866 12.925 7.80033 12.9834 7.64199 12.9834C7.48366 12.9834 7.32533 12.925 7.20033 12.8C6.95866 12.5584 6.95866 12.1584 7.20033 11.9167L9.11699 10L7.20033 8.08335C6.95866 7.84169 6.95866 7.44169 7.20033 7.20002C7.44199 6.95835 7.84199 6.95835 8.08366 7.20002L10.0003 9.11669L11.917 7.20002C12.1587 6.95835 12.5587 6.95835 12.8003 7.20002C13.042 7.44169 13.042 7.84169 12.8003 8.08335L10.8837 10L12.8003 11.9167Z" />
</svg>
